# Blender 4.0.2
# www.blender.org
mtllib hair.mtl
o Plane
v -1.000000 0.000000 1.000000
v 1.491622 0.000000 1.000000
v -1.000000 0.000000 -1.304897
v 1.491622 0.000000 -1.304897
v -1.000000 0.185631 1.000000
v 1.491622 0.185631 1.000000
v -1.000000 0.185631 -1.304897
v 1.491622 0.185631 -1.304897
v -1.096285 0.185631 1.096285
v 1.587907 0.185631 1.096285
v -1.096285 0.185631 -1.401182
v 1.587907 0.185631 -1.401182
v -1.096285 0.264789 1.096285
v 1.587907 0.264789 1.096285
v -1.096285 0.264789 -1.401182
v 1.587907 0.264789 -1.401182
vn -0.0000 -1.0000 -0.0000
vn -0.0000 1.0000 -0.0000
vn 1.0000 -0.0000 -0.0000
vn -1.0000 -0.0000 -0.0000
vn -0.0000 -0.0000 -1.0000
vn -0.0000 -0.0000 1.0000
vt 0.000000 0.000000
vt 0.000000 1.000000
vt 1.000000 1.000000
vt 1.000000 0.000000
s 0
f 1/1/1 3/2/1 4/3/1 2/4/1
f 5/1/2 6/4/2 8/3/2 7/2/2
f 2/4/3 4/3/3 8/3/3 6/4/3
f 3/2/4 1/1/4 5/1/4 7/2/4
f 4/3/5 3/2/5 7/2/5 8/3/5
f 1/1/6 2/4/6 6/4/6 5/1/6
f 9/1/1 11/2/1 12/3/1 10/4/1
f 13/1/2 14/4/2 16/3/2 15/2/2
f 12/3/5 11/2/5 15/2/5 16/3/5
f 9/1/6 10/4/6 14/4/6 13/1/6
f 10/4/3 12/3/3 16/3/3 14/4/3
f 11/2/4 9/1/4 13/1/4 15/2/4
o Plane.001
v -0.973682 0.000000 0.973682
v -0.656137 0.000000 0.973682
v -0.973682 0.000000 0.656137
v -0.656137 0.000000 0.656137
v -0.973682 -1.967951 0.973682
v -0.656137 -1.967951 0.973682
v -0.973682 -1.967951 0.656137
v -0.656137 -1.967951 0.656137
v 1.146293 0.000000 0.973682
v 1.463839 0.000000 0.973682
v 1.146293 0.000000 0.656137
v 1.463839 0.000000 0.656137
v 1.146293 -1.967951 0.973682
v 1.463839 -1.967951 0.973682
v 1.146293 -1.967951 0.656137
v 1.463839 -1.967951 0.656137
v -0.973682 3.214698 -1.366207
v -0.656137 3.214698 -1.366207
v -0.973682 3.174292 -1.681172
v -0.656137 3.174292 -1.681172
v -0.973682 -1.967951 -0.955058
v -0.656137 -1.967951 -0.955058
v -0.973682 -1.967951 -1.272604
v -0.656137 -1.967951 -1.272604
v 1.146293 3.214698 -1.366207
v 1.463839 3.214698 -1.366207
v 1.146293 3.174292 -1.681172
v 1.463839 3.174292 -1.681172
v 1.146293 -1.967951 -0.955058
v 1.463839 -1.967951 -0.955058
v 1.146293 -1.967951 -1.272604
v 1.463839 -1.967951 -1.272604
v -0.656137 2.915478 -1.327822
v -0.656137 2.875072 -1.642786
v -0.973682 2.875072 -1.642786
v -0.973682 2.915478 -1.327822
v 1.463839 2.915478 -1.327822
v 1.463839 2.875072 -1.642786
v 1.146293 2.875072 -1.642786
v 1.146293 2.915478 -1.327822
v 1.463839 0.057885 -0.955058
v 1.146293 0.057885 -1.272604
v 1.463839 0.057885 -1.272604
v 1.146293 0.057885 -0.955058
v -0.656137 0.057885 -0.955058
v -0.973682 0.057885 -1.272604
v -0.656137 0.057885 -1.272604
v -0.973682 0.057885 -0.955058
vn -0.0000 1.0000 -0.0000
vn -0.0000 -1.0000 -0.0000
vn 1.0000 -0.0000 -0.0000
vn -1.0000 -0.0000 -0.0000
vn -0.0000 -0.0000 -1.0000
vn -0.0000 -0.0000 1.0000
vn -0.0000 0.9919 -0.1272
vn -0.0000 0.1272 0.9919
vn -0.0000 -0.1272 -0.9919
vn -0.0000 -0.9919 0.1272
vn -0.0000 0.1294 0.9916
vn -0.0000 -0.1303 -0.9915
vt 0.000000 0.000000
vt 1.000000 0.000000
vt 1.000000 1.000000
vt 0.000000 1.000000
vt 1.000000 1.000000
vt 1.000000 0.000000
vt 0.000000 1.000000
s 0
f 17/5/7 18/6/7 20/7/7 19/8/7
f 21/5/8 23/8/8 24/7/8 22/6/8
f 20/7/9 18/6/9 22/6/9 24/7/9
f 17/5/10 19/8/10 23/8/10 21/5/10
f 19/8/11 20/7/11 24/7/11 23/8/11
f 18/6/12 17/5/12 21/5/12 22/6/12
f 25/5/7 26/6/7 28/7/7 27/8/7
f 29/5/8 31/8/8 32/7/8 30/6/8
f 28/7/9 26/6/9 30/6/9 32/7/9
f 25/5/10 27/8/10 31/8/10 29/5/10
f 27/8/11 28/7/11 32/7/11 31/8/11
f 26/6/12 25/5/12 29/5/12 30/6/12
f 33/5/13 34/6/13 36/7/13 35/8/13
f 37/5/8 39/8/8 40/7/8 38/6/8
f 63/9/9 61/10/9 38/6/9 40/7/9
f 64/5/10 62/11/10 39/8/10 37/5/10
f 62/11/11 63/9/11 40/7/11 39/8/11
f 61/10/12 64/5/12 37/5/12 38/6/12
f 41/5/13 42/6/13 44/7/13 43/8/13
f 45/5/8 47/8/8 48/7/8 46/6/8
f 59/9/9 57/10/9 46/6/9 48/7/9
f 60/5/10 58/11/10 47/8/10 45/5/10
f 58/11/11 59/9/11 48/7/11 47/8/11
f 57/10/12 60/5/12 45/5/12 46/6/12
f 34/6/14 33/5/14 52/5/14 49/6/14
f 35/8/15 36/7/15 50/7/15 51/8/15
f 33/5/10 35/8/10 51/8/10 52/5/10
f 42/6/14 41/5/14 56/5/14 53/6/14
f 43/8/15 44/7/15 54/7/15 55/8/15
f 44/7/9 42/6/9 53/6/9 54/7/9
f 50/7/15 36/7/15 43/8/15 55/8/15
f 49/6/16 50/7/16 55/8/16 56/5/16
f 56/5/14 41/5/14 34/6/14 49/6/14
f 34/6/13 41/5/13 43/8/13 36/7/13
f 53/6/17 56/5/17 60/5/17 57/10/17
f 55/8/18 54/7/18 59/9/18 58/11/18
f 56/5/10 55/8/10 58/11/10 60/5/10
f 54/7/9 53/6/9 57/10/9 59/9/9
f 49/6/17 52/5/17 64/5/17 61/10/17
f 51/8/18 50/7/18 63/9/18 62/11/18
f 52/5/10 51/8/10 62/11/10 64/5/10
f 50/7/9 49/6/9 61/10/9 63/9/9
o Plane.002
v -0.758431 1.002549 -1.093019
v -0.758431 0.964819 -1.387130
v 1.248587 1.002549 -1.093019
v 1.248587 0.964819 -1.387130
v -0.758431 0.723141 -1.057174
v -0.758431 0.685411 -1.351285
v 1.248587 0.685410 -1.351285
v 1.248587 0.723141 -1.057175
vn -0.0000 -0.1272 -0.9919
vn -0.0000 -0.9919 0.1272
vn -0.0000 0.1272 0.9919
vn -0.0000 0.9919 -0.1272
vt 1.000000 1.000000
vt 0.000000 1.000000
vt 1.000000 0.000000
vt 0.000000 0.000000
s 0
f 70/12/19 66/12/19 68/13/19 71/13/19
f 69/14/20 70/12/20 71/13/20 72/15/20
f 72/15/21 67/15/21 65/14/21 69/14/21
f 65/14/22 67/15/22 68/13/22 66/12/22
o Plane.003
v -0.515458 3.105824 -1.399744
v -0.515458 3.077410 -1.621240
v 1.252448 1.034585 -1.134033
v 1.252448 1.006170 -1.355529
v -0.735294 2.931114 -1.377331
v -0.735294 2.902699 -1.598827
v 1.032611 0.831460 -1.333116
v 1.032612 0.859875 -1.111621
v 1.032611 3.105824 -1.399744
v 1.032611 3.077410 -1.621240
v -0.735294 1.034585 -1.134033
v -0.735294 1.006170 -1.355529
v 1.252448 2.931114 -1.377331
v 1.252447 2.902699 -1.598827
v -0.515458 0.831460 -1.333116
v -0.515458 0.859875 -1.111621
vn -0.0000 -0.1272 -0.9919
vn -0.7632 -0.6409 0.0822
vn -0.0000 0.1272 0.9919
vn 0.7632 0.6409 -0.0822
vn 0.7632 -0.6409 0.0822
vn -0.7632 0.6409 -0.0822
vt 1.000000 1.000000
vt 0.000000 1.000000
vt 1.000000 0.000000
vt 0.000000 0.000000
s 0
f 78/16/23 74/16/23 76/17/23 79/17/23
f 77/18/24 78/16/24 79/17/24 80/19/24
f 80/19/25 75/19/25 73/18/25 77/18/25
f 73/18/26 75/19/26 76/17/26 74/16/26
f 86/16/23 87/17/23 84/17/23 82/16/23
f 85/18/27 88/19/27 87/17/27 86/16/27
f 88/19/25 85/18/25 81/18/25 83/19/25
f 81/18/28 82/16/28 84/17/28 83/19/28
